<svg xmlns="http://www.w3.org/2000/svg" viewBox="0 0 28 28">
  <title>ezlo</title><path
    d="M26.323,14.24l-2.381-.748a7.318,7.318,0,0,0-.5-2.606l1.887-1.848a1.924,1.924,0,0,0,.154-2.585L24.082,4.7a1.936,1.936,0,0,0-2.6-.382l-2.028,1.4a10.132,10.132,0,0,0-2.238-1.1L16.995,2.362A1.922,1.922,0,0,0,15.075.624H12.829A1.939,1.939,0,0,0,10.905,2.41L10.744,4.632A10.186,10.186,0,0,0,8.562,5.7L6.449,4.32a1.925,1.925,0,0,0-2.558.409L2.485,6.481A1.939,1.939,0,0,0,2.674,9.1L4.56,10.863l-0.124.358a5.245,5.245,0,0,0-.382,2.1h0c0,0.043-.007.089-0.008,0.137l-2.415.825A1.924,1.924,0,0,0,.38,16.554l0.513,2.188a1.942,1.942,0,0,0,2.178,1.464l2.78-.435a10.557,10.557,0,0,0,1.031,1.246l-1.034,2.77a1.923,1.923,0,0,0,.958,2.4l2.019,0.99a1.912,1.912,0,0,0,.84.194,1.94,1.94,0,0,0,1.672-.951L12.8,23.93a10.433,10.433,0,0,0,2.357.008L16.71,26.45a1.922,1.922,0,0,0,2.489.716l2.017-.989a1.939,1.939,0,0,0,.942-2.451l-1.083-2.681a10.653,10.653,0,0,0,1.05-1.244l2.85,0.377a1.931,1.931,0,0,0,2.132-1.471l0.512-2.182A1.93,1.93,0,0,0,26.323,14.24Zm-1.1,4.036L22.377,17.9a1.935,1.935,0,0,0-1.834.806,8.062,8.062,0,0,1-.835.991,1.921,1.921,0,0,0-.41,2.066l1.073,2.692-2.027.985-1.556-2.509a1.93,1.93,0,0,0-1.859-.9,7.935,7.935,0,0,1-1.9,0,1.908,1.908,0,0,0-1.889.939L9.67,25.457l-2.021-1,1.034-2.77a1.928,1.928,0,0,0-.422-2.016,8,8,0,0,1-.841-1.007,1.95,1.95,0,0,0-1.589-.812,2.021,2.021,0,0,0-.3.023L2.763,18.3l-0.507-2.2,2.613-.894a1.658,1.658,0,0,0,1.1-1.8c0-.029,0-0.059,0-0.089a3.413,3.413,0,0,1,.273-1.469l0.131-.379a1.931,1.931,0,0,0-.511-2.028L3.984,7.683,5.4,5.929,7.512,7.3a1.922,1.922,0,0,0,2.1.007,8.024,8.024,0,0,1,1.76-.863,1.92,1.92,0,0,0,1.284-1.676l0.174-2.227,2.254,0.007,0.224,2.257a1.923,1.923,0,0,0,1.284,1.628,8.01,8.01,0,0,1,1.812.887,1.916,1.916,0,0,0,2.142-.029L22.584,5.9l1.4,1.763L22.1,9.514a1.939,1.939,0,0,0-.478,1.99,5.3,5.3,0,0,1,.4,2.066A1.823,1.823,0,0,0,23.3,15.3l2.446,0.769,0,0.01Z"/><path d="M14,10.572A3.429,3.429,0,1,0,17.431,14,3.433,3.433,0,0,0,14,10.572Zm0,5.9A2.469,2.469,0,1,1,16.471,14,2.471,2.471,0,0,1,14,16.469Z"/></svg>
